#!OML:ASF E:\motion texture\Top Level 1\Subject 1\Session 1\male.ASF
:FULLY-SPECIFIED
:DEGREES
270
root 21.5936 17.8167 3.97823 83.3002 -79.3711 -75.1157
lowerback -0.647737 2.33333 4.812
upperback 1.57468 3.06622 -2.66319
thorax 2.39192 1.63844 -5.36769
lowerneck -7.32076 12.0144 2.45576
upperneck 20.0421 17.5376 -8.5426
head 8.43595 7.55157 -1.4851
rclavicle 7.15625e-015 -3.02153e-014
rhumerus -20.4358 -5.53433 -81.0916
rradius 27.0985
rwrist 11.448
rhand -14.1089 -25.6554
rfingers 7.12502
rthumb 12.0241 -55.29
lclavicle 7.15625e-015 -3.02153e-014
lhumerus -9.85556 21.7254 66.44
lradius 28.0582
lwrist -26.0603
lhand -16.8797 26.3953
lfingers 7.12502
lthumb 9.35139 56.1679
rfemur -7.61386 1.80827 36.0722
rtibia 17.9402
rfoot -12.4845 -13.2167
rtoes 9.33206
lfemur -30.3273 -1.04108 0.316454
ltibia 35.6341
lfoot -8.18109 3.75135
ltoes -16.3329
271
root 21.4715 17.808 3.98911 83.7271 -79.3482 -75.4887
lowerback -0.728415 2.40679 4.89855
upperback 1.53447 3.16073 -2.67141
thorax 2.4136 1.68736 -5.419
lowerneck -7.33955 12.0171 2.4794
upperneck 20.0693 17.5469 -8.56501
head 8.45359 7.55339 -1.49257
rclavicle 3.89618e-014 -5.56597e-014
rhumerus -20.2846 -5.29132 -81.2759
rradius 27.1905
rwrist 11.4339
rhand -14.0869 -25.6246
rfingers 7.12502
rthumb 12.0454 -55.258
lclavicle 3.89618e-014 -5.56597e-014
lhumerus -10.3154 21.5642 66.5765
lradius 28.4688
lwrist -25.9112
lhand -16.6782 26.3445
lfingers 7.12502
lthumb 9.5458 56.1083
rfemur -7.20077 1.89598 36.1046
rtibia 17.9177
rfoot -12.7287 -13.2819
rtoes 8.77655
lfemur -30.5967 -1.00348 0.466897
ltibia 34.1984
lfoot -8.16962 4.0262
ltoes -16.3049
272
root 21.3489 17.7987 4.00096 84.1602 -79.325 -75.8655
lowerback -0.810675 2.47861 4.98367
upperback 1.49347 3.2529 -2.67938
thorax 2.43523 1.73504 -5.46906
lowerneck -7.35711 12.0181 2.50369
upperneck 20.095 17.5545 -8.59141
head 8.47083 7.55413 -1.50173
rclavicle 1.59028e-015 4.13472e-014
rhumerus -20.1411 -5.03965 -81.4694
rradius 27.2852
rwrist 11.4306
rhand -14.0587 -25.5809
rfingers 7.12502
rthumb 12.0725 -55.2127
lclavicle 1.59028e-015 4.13472e-014
lhumerus -10.7906 21.4699 66.716
lradius 28.8755
lwrist -25.774
lhand -16.4948 26.3158
lfingers 7.12502
lthumb 9.72277 56.0713
rfemur -6.79859 1.98471 36.133
rtibia 17.914
rfoot -12.9696 -13.3447
rtoes 8.20111
lfemur -30.8461 -0.976313 0.617619
ltibia 32.7687
lfoot -8.13458 4.28821
ltoes -16.2955
273
root 21.2257 17.7889 4.01382 84.6061 -79.3013 -76.2538
lowerback -0.893577 2.54973 5.06839
upperback 1.45213 3.34398 -2.68746
thorax 2.45697 1.78215 -5.51881
lowerneck -7.37476 12.0172 2.52778
upperneck 20.1202 17.5597 -8.62032
head 8.48805 7.55354 -1.51194
rclavicle 9.14409e-015 3.49861e-014
rhumerus -20.0061 -4.7821 -81.6711
rradius 27.3828
rwrist 11.4357
rhand -14.024 -25.5286
rfingers 7.12502
rthumb 12.106 -55.1584
lclavicle 9.14409e-015 3.49861e-014
lhumerus -11.2769 21.4499 66.8576
lradius 29.2733
lwrist -25.6507
lhand -16.3499 26.3647
lfingers 7.12502
lthumb 9.86261 56.1137
rfemur -6.40637 2.07311 36.1571
rtibia 17.9304
rfoot -13.2061 -13.4035
rtoes 7.60132
lfemur -31.0743 -0.960285 0.768355
ltibia 31.3545
lfoot -8.07813 4.53556
ltoes -16.3026
274
root 21.1018 17.7785 4.02766 85.0703 -79.2778 -76.6596
lowerback -0.978213 2.62017 5.15118
upperback 1.41078 3.43398 -2.69507
thorax 2.47966 1.82869 -5.56672
lowerneck -7.39293 12.0145 2.55091
upperneck 20.1466 17.5633 -8.65156
head 8.50583 7.55171 -1.52291
rclavicle -1.31198e-014 3.49861e-014
rhumerus -19.8791 -4.5191 -81.8798
rradius 27.4829
rwrist 11.4499
rhand -13.9867 -25.4652
rfingers 7.12502
rthumb 12.1419 -55.0929
lclavicle -1.31198e-014 3.49861e-014
lhumerus -11.7732 21.5056 66.9999
lradius 29.6603
lwrist -25.5365
lhand -16.2074 26.3862
lfingers 7.12502
lthumb 10.0001 56.1286
rfemur -6.02382 2.16347 36.1772
rtibia 17.9674
rfoot -13.4385 -13.4596
rtoes 6.98452
lfemur -31.282 -0.954667 0.919013
ltibia 29.9655
lfoot -7.99506 4.76294
ltoes -16.3187
275
root 20.9771 17.7677 4.0425 85.5591 -79.2549 -77.09
lowerback -1.07245 2.69405 5.23349
upperback 1.36964 3.52805 -2.70454
thorax 2.50888 1.87746 -5.61542
lowerneck -7.38982 12.0064 2.58533
upperneck 20.1663 17.5582 -8.69182
head 8.51883 7.54688 -1.5409
rclavicle -1.94809e-014 -2.54444e-014
rhumerus -19.7675 -4.26154 -82.0937
rradius 27.5868
rwrist 11.4708
rhand -13.9478 -25.3891
rfingers 7.12502
rthumb 12.1795 -55.0145
lclavicle -1.94809e-014 -2.54444e-014
lhumerus -12.2772 21.6249 67.1414
lradius 30.0344
lwrist -25.4281
lhand -16.0895 26.4224
lfingers 7.12502
lthumb 10.1138 56.1594
rfemur -5.64988 2.25467 36.1921
rtibia 18.0259
rfoot -13.6648 -13.5103
rtoes 6.34369
lfemur -31.4687 -0.959033 1.06856
ltibia 28.61
lfoot -7.88041 4.97249
ltoes -16.3403
